# This file uses centimeters as units for non-parametric coordinates.

mtllib key.mtl
g default
v -15.881769 5.214834 1.327489
v -14.904571 5.002505 1.327489
v -15.835580 5.427407 1.327489
v -14.858382 5.215077 1.327489
v -15.607590 5.377868 0.978427
v -15.086373 5.264616 0.978427
v -15.653778 5.165296 0.978427
v -15.132562 5.052043 0.978427
v -15.881769 5.214834 1.700515
v -14.904571 5.002505 1.700515
v -15.835580 5.427407 1.700515
v -14.858382 5.215077 1.700515
v -15.607590 5.377868 2.049577
v -15.086373 5.264616 2.049577
v -15.653778 5.165296 2.049577
v -15.132562 5.052043 2.049577
vt 0.375000 0.000000
vt 0.625000 0.000000
vt 0.375000 0.250000
vt 0.625000 0.250000
vt 0.375000 0.500000
vt 0.625000 0.500000
vt 0.375000 0.750000
vt 0.625000 0.750000
vt 0.375000 1.000000
vt 0.625000 1.000000
vt 0.875000 0.000000
vt 0.875000 0.250000
vt 0.125000 0.000000
vt 0.125000 0.250000
vt 0.375000 0.000000
vt 0.625000 0.000000
vt 0.625000 0.250000
vt 0.375000 0.250000
vt 0.625000 0.500000
vt 0.375000 0.500000
vt 0.625000 0.750000
vt 0.375000 0.750000
vt 0.625000 1.000000
vt 0.375000 1.000000
vt 0.875000 0.000000
vt 0.875000 0.250000
vt 0.125000 0.000000
vt 0.125000 0.250000
vn 0.212330 0.977198 -0.000001
vn 0.212330 0.977198 -0.000001
vn 0.212330 0.977198 -0.000001
vn 0.212330 0.977198 -0.000001
vn 0.000000 0.000000 -1.000000
vn 0.000000 0.000000 -1.000000
vn 0.000000 0.000000 -1.000000
vn 0.000000 0.000000 -1.000000
vn -0.212329 -0.977198 0.000000
vn -0.212329 -0.977198 0.000000
vn -0.212329 -0.977198 0.000000
vn -0.212329 -0.977198 0.000000
vn 0.812430 -0.176529 -0.555693
vn 0.812430 -0.176529 -0.555693
vn 0.812430 -0.176529 -0.555693
vn 0.812430 -0.176529 -0.555693
vn -0.812430 0.176534 -0.555692
vn -0.812430 0.176534 -0.555692
vn -0.812430 0.176534 -0.555692
vn -0.812430 0.176534 -0.555692
vn 0.212330 0.977198 0.000000
vn 0.212330 0.977198 0.000000
vn 0.212330 0.977198 0.000000
vn 0.212330 0.977198 0.000000
vn -0.000000 0.000000 1.000000
vn -0.000000 0.000000 1.000000
vn -0.000000 0.000000 1.000000
vn -0.000000 0.000000 1.000000
vn -0.212329 -0.977198 0.000000
vn -0.212329 -0.977198 0.000000
vn -0.212329 -0.977198 0.000000
vn -0.212329 -0.977198 0.000000
vn 0.812430 -0.176529 0.555693
vn 0.812430 -0.176529 0.555693
vn 0.812430 -0.176529 0.555693
vn 0.812430 -0.176529 0.555693
vn -0.812430 0.176534 0.555692
vn -0.812430 0.176534 0.555692
vn -0.812430 0.176534 0.555692
vn -0.812430 0.176534 0.555692
vn 0.977199 -0.212324 0.000000
vn 0.977199 -0.212324 0.000000
vn 0.977199 -0.212324 0.000000
vn 0.977199 -0.212324 0.000000
vn 0.212330 0.977198 0.000000
vn 0.212330 0.977198 0.000000
vn 0.212330 0.977198 0.000000
vn 0.212330 0.977198 0.000000
vn -0.977198 0.212329 0.000000
vn -0.977198 0.212329 0.000000
vn -0.977198 0.212329 0.000000
vn -0.977198 0.212329 0.000000
vn -0.212329 -0.977198 0.000000
vn -0.212329 -0.977198 0.000000
vn -0.212329 -0.977198 0.000000
vn -0.212329 -0.977198 0.000000
s off
g pCube19
usemtl initialShadingGroup
f 3/3/1 4/4/2 6/6/3 5/5/4
f 5/5/5 6/6/6 8/8/7 7/7/8
f 7/7/9 8/8/10 2/10/11 1/9/12
f 2/2/13 8/11/14 6/12/15 4/4/16
f 7/13/17 1/1/18 3/3/19 5/14/20
f 11/18/21 13/20/22 14/19/23 12/17/24
f 13/20/25 15/22/26 16/21/27 14/19/28
f 15/22/29 9/24/30 10/23/31 16/21/32
f 10/16/33 12/17/34 14/26/35 16/25/36
f 15/27/37 13/28/38 11/18/39 9/15/40
f 2/2/41 4/4/42 12/17/43 10/16/44
f 4/4/45 3/3/46 11/18/47 12/17/48
f 3/3/49 1/1/50 9/15/51 11/18/52
f 1/9/53 2/10/54 10/23/55 9/24/56
